<svg width="503" height="227" viewBox="0 0 503 227" version="1.1" xmlns="http://www.w3.org/2000/svg" xmlns:xlink="http://www.w3.org/1999/xlink">
<title>Slice</title>
<desc>Created using Figma</desc>
<g id="Canvas" transform="translate(326 360)">
<clipPath id="clip-0" clip-rule="evenodd">
<path d="M -512 -537L 512 -537L 512 487L -512 487L -512 -537Z" fill="#FFFFFF"/>
</clipPath>
<g id="Desktop" clip-path="url(#clip-0)">
<g id="Rectangle">
<mask id="mask0_outline_ins">
<use xlink:href="#path0_fill" fill="white" transform="matrix(0.707107 -0.707107 0.707107 0.707107 -285.132 -255)"/>
</mask>
<g mask="url(#mask0_outline_ins)">
<use xlink:href="#path1_stroke_2x" transform="matrix(0.707107 -0.707107 0.707107 0.707107 -285.132 -255)" fill="#FFFFFF"/>
</g>
</g>
<g id="H">
<use xlink:href="#path2_fill" transform="translate(-46 -254)" fill="#FFFFFF"/>
</g>
<g id="V">
<use xlink:href="#path3_fill" transform="translate(-153 -350)" fill="#FFFFFF"/>
</g>
<g id="Line">
<use xlink:href="#path4_stroke" transform="matrix(0.707107 -0.707107 0.707107 0.707107 -172.624 -188.376)" fill="#FFFFFF"/>
</g>
</g>
</g>
<defs>
<path id="path0_fill" d="M 0 15C 0 6.71573 6.71573 0 15 0L 285 0C 293.284 0 300 6.71573 300 15L 300 285C 300 293.284 293.284 300 285 300L 15 300C 6.71573 300 0 293.284 0 285L 0 15Z"/>
<path id="path1_stroke_2x" d="M 15 10L 285 10L 285 -10L 15 -10L 15 10ZM 290 15L 290 285L 310 285L 310 15L 290 15ZM 285 290L 15 290L 15 310L 285 310L 285 290ZM 10 285L 10 15L -10 15L -10 285L 10 285ZM 15 290C 12.2386 290 10 287.761 10 285L -10 285C -10 298.807 1.19289 310 15 310L 15 290ZM 290 285C 290 287.761 287.761 290 285 290L 285 310C 298.807 310 310 298.807 310 285L 290 285ZM 285 10C 287.761 10 290 12.2386 290 15L 310 15C 310 1.19288 298.807 -10 285 -10L 285 10ZM 15 -10C 1.19288 -10 -10 1.19289 -10 15L 10 15C 10 12.2386 12.2386 10 15 10L 15 -10Z"/>
<path id="path2_fill" d="M 6.70977 30C 6.70977 31.6 7.10977 33.0667 7.90977 34.4C 8.70977 35.6667 9.10977 36.7 9.10977 37.5C 9.10977 38.2333 8.90977 38.9 8.50977 39.5C 8.17643 40.1 7.70977 40.4 7.10977 40.4C 5.97643 40.4 5.0431 39.4333 4.30977 37.5C 3.57643 35.5667 3.20977 33.5333 3.20977 31.4C 3.20977 28.2 4.37643 25.3333 6.70977 22.8C 9.10977 20.2667 12.1431 19 15.8098 19C 18.2764 19 20.1098 20.2 21.3098 22.6C 22.5764 24.9333 23.2098 27.6 23.2098 30.6C 23.2098 33.6 23.1098 36.4333 22.9098 39.1C 22.7764 41.7 22.6431 43.7333 22.5098 45.2C 22.3764 46.6 22.1098 48.8667 21.7098 52C 21.3098 55.0667 21.0431 57.2 20.9098 58.4C 26.2431 58.4 31.8431 55.7 37.7098 50.3C 38.5098 40.7 39.6098 33.2 41.0098 27.8C 42.4764 22.3333 43.9431 18.5 45.4098 16.3C 46.8764 14.1 48.4431 13 50.1098 13C 51.8431 13 53.2431 13.7667 54.3098 15.3C 55.4431 16.8333 56.0098 18.6667 56.0098 20.8C 56.0098 28.6667 52.5098 37.1667 45.5098 46.3C 45.1098 51.5667 44.9098 56.4333 44.9098 60.9C 44.9098 65.3 45.5431 69.6 46.8098 73.8C 48.1431 77.9333 48.8098 80.2333 48.8098 80.7C 48.8098 81.2333 48.4431 81.6333 47.7098 81.9C 46.9764 82.2333 46.1764 82.4 45.3098 82.4C 42.9764 82.4 41.0764 81.8 39.6098 80.6C 38.8764 80 38.2764 77.9667 37.8098 74.5C 37.3431 71.0333 37.1098 67.8 37.1098 64.8C 37.1098 61.7333 37.2098 58.4333 37.4098 54.9C 31.4764 59.9667 25.8431 62.6 20.5098 62.8C 20.4431 63.7333 20.3764 65.3 20.3098 67.5C 20.2431 69.6333 20.1431 71.2333 20.0098 72.3C 19.8764 73.3 19.6098 74.4667 19.2098 75.8C 18.5431 78.2667 16.9431 79.5 14.4098 79.5C 12.8764 79.5 12.1098 78.2 12.1098 75.6C 12.1098 72.9333 12.5098 68.3333 13.3098 61.8C 10.3098 60.5333 8.80977 58.3 8.80977 55.1C 8.80977 52.7667 9.40977 50.8 10.6098 49.2C 11.8098 47.5333 13.2764 46.7 15.0098 46.7C 15.6098 40.5667 15.9098 35.8333 15.9098 32.5C 15.9098 26.5 14.9764 23.5 13.1098 23.5C 8.8431 23.5 6.70977 25.6667 6.70977 30ZM 52.8098 22.5C 52.8098 21.5 52.6431 20.6 52.3098 19.8C 52.0431 18.9333 51.6764 18.5 51.2098 18.5C 49.3431 18.5 47.6431 25.7333 46.1098 40.2C 50.5764 33.4 52.8098 27.5 52.8098 22.5ZM 14.7098 49.9C 13.7764 50.5667 13.3098 51.4667 13.3098 52.6C 13.3098 53.7333 13.5764 54.6667 14.1098 55.4L 14.7098 49.9Z"/>
<path id="path3_fill" d="M 23.5582 81C 18.0249 81 14.2582 78.6 12.2582 73.8C 10.8582 70.5333 9.7582 66.4 8.9582 61.4C 6.9582 63.6667 5.62487 65.2333 4.9582 66.1C 4.29154 66.9 3.69154 67.3 3.1582 67.3C 2.3582 67.3 1.9582 66.9667 1.9582 66.3C 1.9582 65.9 2.1582 65.5 2.5582 65.1C 4.89154 62.7667 6.89154 60.6333 8.5582 58.7C 8.02487 54.9 7.7582 50.8667 7.7582 46.6C 7.7582 42.2667 8.1582 38.2 8.9582 34.4C 9.7582 30.6 11.0915 27.4333 12.9582 24.9C 14.8915 22.3 17.2582 21 20.0582 21C 23.4582 21 25.1582 23.9 25.1582 29.7C 25.1582 37.1667 22.1582 44.8667 16.1582 52.8C 16.6249 58.8 17.7915 64.4333 19.6582 69.7C 20.3915 71.8333 21.1915 73.4333 22.0582 74.5C 22.9915 75.5 24.2582 76 25.8582 76C 27.5249 76 29.3582 74.9 31.3582 72.7C 33.4249 70.4333 35.3249 67.5333 37.0582 64C 38.7915 60.4 40.2582 56.1 41.4582 51.1C 42.6582 46.0333 43.2582 40.7667 43.2582 35.3C 43.2582 29.8333 42.8582 26 42.0582 23.8C 41.2582 21.5333 39.8915 19.5 37.9582 17.7C 35.4249 15.5667 34.1582 13.4667 34.1582 11.4C 34.1582 10.4 34.5582 9.53333 35.3582 8.8C 36.2249 8 37.0915 7.6 37.9582 7.6C 40.1582 7.6 41.9915 8.3 43.4582 9.7C 44.9915 11.1 46.0915 13 46.7582 15.4C 47.9582 19.6 48.5582 24.2 48.5582 29.2C 48.5582 38.6 47.2582 47.3667 44.6582 55.5C 42.1249 63.6333 38.9249 69.9333 35.0582 74.4C 31.2582 78.8 27.4249 81 23.5582 81ZM 21.3582 31C 21.3582 27.4667 20.9582 25.7 20.1582 25.7C 19.6249 25.7 19.0249 26.5 18.3582 28.1C 17.6915 29.7 17.0915 31.9333 16.5582 34.8C 16.0249 37.6667 15.7582 40.4667 15.7582 43.2C 15.7582 45.9333 15.7915 47.8667 15.8582 49C 19.5249 42.8667 21.3582 36.8667 21.3582 31Z"/>
<path id="path4_stroke" d="M -2.44815 -0.246768C -3.03906 5.71042 1.34156 10.2354 7.36703 13.5585C 13.527 16.9559 22.3369 19.6608 32.7464 21.7668C 53.6204 25.9899 81.669 27.9463 109.767 27.7911C 137.87 27.6359 166.191 25.3673 187.618 21.0716C 198.31 18.928 207.435 16.2511 213.983 12.9995C 217.256 11.374 220.011 9.54444 221.996 7.46254C 224 5.36106 225.315 2.89384 225.413 0.0868006L 220.416 -0.0868006C 220.372 1.16668 219.795 2.52553 218.378 4.01205C 216.942 5.51815 214.745 7.03848 211.759 8.52123C 205.789 11.4861 197.161 14.0589 186.635 16.1691C 165.625 20.3811 137.647 22.6371 109.739 22.7912C 81.8266 22.9454 54.1514 20.996 33.7379 16.8661C 23.5036 14.7955 15.2788 12.2121 9.78175 9.18029C 4.15017 6.07434 2.25142 3.02933 2.52743 0.246768L -2.44815 -0.246768Z"/>
</defs>
</svg>
